<?xml version="1.0" encoding="iso-8859-1"?>
<!-- Generator: Adobe Illustrator 17.0.0, SVG Export Plug-In . SVG Version: 6.00 Build 0)  -->
<!DOCTYPE svg PUBLIC "-//W3C//DTD SVG 1.1//EN" "http://www.w3.org/Graphics/SVG/1.1/DTD/svg11.dtd">
<svg version="1.1" id="_x31_3_x5F_fast_x5F_delivery"
	 xmlns="http://www.w3.org/2000/svg" xmlns:xlink="http://www.w3.org/1999/xlink" x="0px" y="0px" width="58px" height="64px"
	 viewBox="0 0 58 64" style="enable-background:new 0 0 58 64;" xml:space="preserve">
<g>
	<g>
		<circle style="fill:none;stroke:#222829;stroke-width:2;stroke-miterlimit:10;" cx="29" cy="36" r="27"/>
		<circle style="fill:none;stroke:#222829;stroke-width:2;stroke-miterlimit:10;" cx="29" cy="5" r="4"/>
		<line style="fill:none;stroke:#222829;stroke-width:2;stroke-miterlimit:10;" x1="29" y1="12" x2="29" y2="14"/>
		<line style="fill:none;stroke:#222829;stroke-width:2;stroke-miterlimit:10;" x1="27" y1="38" x2="15" y2="50"/>
		<line style="fill:none;stroke:#222829;stroke-width:2;stroke-miterlimit:10;" x1="7" y1="14" x2="10.002" y2="17.002"/>
		<line style="fill:none;stroke:#222829;stroke-width:2;stroke-miterlimit:10;" x1="5" y1="36" x2="7" y2="36"/>
		<line style="fill:none;stroke:#222829;stroke-width:2;stroke-miterlimit:10;" x1="53" y1="36" x2="51" y2="36"/>
		<line style="fill:none;stroke:#222829;stroke-width:2;stroke-miterlimit:10;" x1="29" y1="60" x2="29" y2="58"/>
		<circle style="fill:none;stroke:#222829;stroke-width:2;stroke-miterlimit:10;" cx="29" cy="36" r="3"/>
		
			<rect x="1.257" y="10.379" transform="matrix(0.7071 -0.7071 0.7071 0.7071 -7.2279 7.5503)" style="fill:none;stroke:#222829;stroke-width:2;stroke-linejoin:round;stroke-miterlimit:10;" width="8.485" height="4.243"/>
		<line style="fill:none;stroke:#222829;stroke-width:2;stroke-miterlimit:10;" x1="51.002" y1="14" x2="48" y2="17.002"/>
		
			<rect x="48.257" y="10.379" transform="matrix(-0.7071 -0.7071 0.7071 -0.7071 80.7843 58.4619)" style="fill:none;stroke:#222829;stroke-width:2;stroke-linejoin:round;stroke-miterlimit:10;" width="8.485" height="4.243"/>
		<path style="fill:none;stroke:#222829;stroke-width:2;stroke-miterlimit:10;" d="M29,17c10.493,0,19,8.507,19,19s-8.507,19-19,19
			c-5.245,0-9.994-2.125-13.433-5.562"/>
		<path style="fill:none;stroke:#222829;stroke-width:2;stroke-miterlimit:10;" d="M29,23c7.18,0,13,5.82,13,13s-5.82,13-13,13
			c-3.589,0-6.838-1.455-9.191-3.807"/>
		<line style="fill:none;stroke:#222829;stroke-width:2;stroke-miterlimit:10;" x1="9" y1="36" x2="11" y2="36"/>
		<line style="fill:none;stroke:#222829;stroke-width:2;stroke-miterlimit:10;" x1="13" y1="36" x2="15" y2="36"/>
		<line style="fill:none;stroke:#222829;stroke-width:2;stroke-miterlimit:10;" x1="17" y1="36" x2="19" y2="36"/>
		<line style="fill:none;stroke:#222829;stroke-width:2;stroke-miterlimit:10;" x1="21" y1="36" x2="23" y2="36"/>
		<line style="fill:none;stroke:#222829;stroke-width:2;stroke-miterlimit:10;" x1="29" y1="9" x2="29" y2="5"/>
	</g>
</g>
</svg>
