<?xml version="1.0" encoding="iso-8859-1"?>
<!-- Generator: Adobe Illustrator 17.0.0, SVG Export Plug-In . SVG Version: 6.00 Build 0)  -->
<!DOCTYPE svg PUBLIC "-//W3C//DTD SVG 1.1//EN" "http://www.w3.org/Graphics/SVG/1.1/DTD/svg11.dtd">
<svg version="1.1" id="_x34_7_x5F_running_x5F_fast"
	 xmlns="http://www.w3.org/2000/svg" xmlns:xlink="http://www.w3.org/1999/xlink" x="0px" y="0px" width="64px" height="64px"
	 viewBox="0 0 64 64" style="enable-background:new 0 0 64 64;" xml:space="preserve">
<g>
	<line style="fill:none;stroke:#222829;stroke-width:2;stroke-miterlimit:10;" x1="40" y1="63" x2="0" y2="63"/>
	<path style="fill:none;stroke:#222829;stroke-width:2;stroke-miterlimit:10;" d="M57,56l-3,3h-5c-3.313,0-7-4-7-4L21,34"/>
	<path style="fill:none;stroke:#222829;stroke-width:2;stroke-linejoin:round;stroke-miterlimit:10;" d="M43,34h-4
		c-3.866,0-7-3.133-7-7v-2h-2L19,36v2l21,21c0,0,3.687,4,7,4h12c2.209,0,4-1.791,4-4c0-1-1-2-1-2l-8-2l-8-8V33"/>
	<line style="fill:none;stroke:#222829;stroke-width:2;stroke-miterlimit:10;" x1="46" y1="39" x2="40" y2="39"/>
	<line style="fill:none;stroke:#222829;stroke-width:2;stroke-miterlimit:10;" x1="46" y1="43" x2="42" y2="43"/>
	<line style="fill:none;stroke:#222829;stroke-width:2;stroke-miterlimit:10;" x1="30" y1="58" x2="14" y2="58"/>
	<line style="fill:none;stroke:#222829;stroke-width:2;stroke-miterlimit:10;" x1="22" y1="52" x2="4" y2="52"/>
	<line style="fill:none;stroke:#222829;stroke-width:2;stroke-miterlimit:10;" x1="20" y1="46" x2="12" y2="46"/>
	<line style="fill:none;stroke:#222829;stroke-width:2;stroke-miterlimit:10;" x1="24" y1="52" x2="26" y2="52"/>
	<line style="fill:none;stroke:#222829;stroke-width:2;stroke-miterlimit:10;" x1="10" y1="46" x2="8" y2="46"/>
	<polyline style="fill:none;stroke:#222829;stroke-width:2;stroke-linecap:round;stroke-miterlimit:10;" points="34,23 40,17 50,1 	
		"/>
	<polyline style="fill:none;stroke:#222829;stroke-width:2;stroke-linecap:round;stroke-miterlimit:10;" points="46,31 47,28 63,12 
			"/>
</g>
</svg>
